<svg width="29" height="31" viewBox="0 0 29 31" fill="none" xmlns="http://www.w3.org/2000/svg">
<path fill-rule="evenodd" clip-rule="evenodd" d="M4.83333 3.37566C3.94355 3.37566 3.22222 4.13134 3.22222 5.06349V16.8783V25.3175C3.22222 26.2496 3.94355 27.0053 4.83333 27.0053H24.1667C25.0565 27.0053 25.7778 26.2496 25.7778 25.3175V16.8783V5.06349C25.7778 4.13134 25.0565 3.37566 24.1667 3.37566H4.83333ZM0 5.06349C0 2.26701 2.16396 0 4.83333 0H24.1667C26.8361 0 29 2.26701 29 5.06349V16.8783V25.3175C29 28.114 26.8361 30.381 24.1667 30.381H4.83333C2.16396 30.381 0 28.114 0 25.3175V16.8783V5.06349Z" fill="black"/>
</svg>
