<svg width="94" height="86" viewBox="0 0 94 86" fill="none" xmlns="http://www.w3.org/2000/svg">
<path d="M69.3348 34.7677C69.3348 34.7677 73.1054 31.9011 70.2389 29.0346C67.3659 26.168 64.5765 29.8678 64.5765 29.8678L42.1555 52.2921C42.1555 52.2921 35.3896 61.014 30.2645 55.7345C25.1395 50.455 33.707 43.8436 33.707 43.8436L65.1041 12.4432C65.1041 12.4432 73.9323 2.71745 82.2263 11.0115C90.5204 19.3088 80.7689 28.1562 80.7689 28.1562L38.2594 70.669C38.2594 70.669 24.6569 86.382 12.0613 73.7865C-0.534207 61.191 15.3301 47.7429 15.3301 47.7429L47.6119 15.461C47.6119 15.461 51.2314 12.4432 48.516 9.72783C45.8006 7.01247 42.7861 10.6319 42.7861 10.6319L5.75552 47.6657C5.75552 47.6657 -8.22344 63.0023 7.38988 78.6092C23.0032 94.2225 38.3366 80.2467 38.3366 80.2467L89.24 29.3402C89.24 29.3402 99.4193 18.1023 87.2806 5.95722C75.142 -6.1879 63.8977 3.99791 63.8977 3.99791L26.5454 41.3534C26.5454 41.3534 15.3172 50.4711 25.4998 60.6505C35.6824 70.8299 44.6456 59.4537 44.6456 59.4537L69.3348 34.7677Z" fill="black"/>
</svg>
