<svg width="25" height="26" viewBox="0 0 25 26" fill="none" xmlns="http://www.w3.org/2000/svg">
<path d="M24.3983 21.196C24.7955 21.6256 25.0109 22.1923 24.9996 22.7773C24.9882 23.3623 24.7509 23.9201 24.3373 24.334C23.9237 24.7478 23.366 24.9856 22.781 24.9973C22.1961 25.0091 21.6293 24.794 21.1994 24.3971L12.5634 15.7611L3.92735 24.3971C3.72036 24.621 3.47028 24.8008 3.19211 24.9257C2.91394 25.0506 2.61341 25.1181 2.30855 25.124C2.00368 25.1299 1.70076 25.0742 1.41795 24.9602C1.13513 24.8462 0.878255 24.6763 0.662716 24.4606C0.447177 24.2449 0.277418 23.9879 0.163618 23.705C0.0498181 23.4221 -0.00567766 23.1192 0.000458623 22.8143C0.00659491 22.5095 0.0742368 22.209 0.199328 21.9309C0.324419 21.6528 0.504383 21.4029 0.728426 21.196L9.36443 12.56L0.728426 3.92841C0.504383 3.72157 0.324419 3.47161 0.199328 3.19353C0.0742368 2.91545 0.00659491 2.61497 0.000458623 2.3101C-0.00567766 2.00524 0.0498181 1.70228 0.163618 1.41939C0.277418 1.1365 0.447177 0.879503 0.662716 0.663816C0.878255 0.448129 1.13513 0.278193 1.41795 0.164199C1.70076 0.0502047 2.00368 -0.00549898 2.30855 0.000427846C2.61341 0.00635467 2.91394 0.0737899 3.19211 0.19869C3.47028 0.32359 3.72036 0.503382 3.92735 0.727284L12.5634 9.36109L21.1994 0.725085C21.6293 0.328204 22.1961 0.113113 22.781 0.124887C23.366 0.136662 23.9237 0.374386 24.3373 0.788245C24.7509 1.2021 24.9882 1.75997 24.9996 2.34495C25.0109 2.92992 24.7955 3.49659 24.3983 3.92621L15.7623 12.56L24.3983 21.196Z" fill="#767575"/>
</svg>
