<svg width="92" height="92" viewBox="0 0 92 92" fill="none" xmlns="http://www.w3.org/2000/svg">
<path d="M11.864 53.43L0 89.5567L15.8563 73.6422C14.7655 70.8898 15.0346 66.1885 17.2634 63.9633C20.2485 60.9746 25.1643 61.0437 28.1494 64.0324C31.1345 67.0211 31.2981 72.0242 28.313 75.0129C26.0405 77.2854 21.0484 77.4163 18.2633 76.2382L2.54515 92L37.8173 79.6087L50.6631 56.4697L35.014 41.0315L11.864 53.43ZM71.3334 0C71.3334 0 49.4778 21.852 46.1073 25.2261C42.7295 28.6002 40.9661 41.2933 40.9661 41.2933L50.7649 51.0958C50.7649 51.0958 63.138 49.3287 66.6721 45.7909C70.2062 42.2532 91.8982 20.5648 91.8982 20.5648L71.3334 0Z" fill="black"/>
</svg>
