<svg width="800" height="800" viewBox="0 0 800 800" fill="none" xmlns="http://www.w3.org/2000/svg">
<path d="M566.667 66.6667H666.667C675.507 66.6667 683.986 70.1786 690.237 76.4298C696.488 82.681 700 91.1594 700 100V700C700 708.841 696.488 717.319 690.237 723.57C683.986 729.821 675.507 733.333 666.667 733.333H133.333C124.493 733.333 116.014 729.821 109.763 723.57C103.512 717.319 100 708.841 100 700V100C100 91.1594 103.512 82.681 109.763 76.4298C116.014 70.1786 124.493 66.6667 133.333 66.6667H233.333V0H300V66.6667H500V0H566.667V66.6667ZM566.667 133.333V200H500V133.333H300V200H233.333V133.333H166.667V666.667H633.333V133.333H566.667ZM233.333 266.667H566.667V333.333H233.333V266.667ZM233.333 400H566.667V466.667H233.333V400Z" fill="white"/>
</svg>
